<mxfile host="65bd71144e">
    <diagram id="p-jHquY5tnzl4_WfdpoF" name="Page-1">
        <mxGraphModel dx="1638" dy="859" grid="1" gridSize="10" guides="1" tooltips="1" connect="1" arrows="1" fold="1" page="1" pageScale="1" pageWidth="850" pageHeight="1100" math="0" shadow="0">
            <root>
                <mxCell id="0"/>
                <mxCell id="1" parent="0"/>
                <mxCell id="13" value="" style="rounded=0;whiteSpace=wrap;html=1;labelBackgroundColor=none;labelBorderColor=none;verticalAlign=middle;" vertex="1" parent="1">
                    <mxGeometry x="80" y="130" width="740" height="330" as="geometry"/>
                </mxCell>
                <mxCell id="2" value="&lt;b&gt;&lt;u&gt;income&lt;/u&gt;&lt;/b&gt;" style="rounded=0;whiteSpace=wrap;html=1;" vertex="1" parent="1">
                    <mxGeometry x="130" y="310" width="120" height="60" as="geometry"/>
                </mxCell>
                <mxCell id="3" value="&lt;b&gt;&lt;u&gt;spending&lt;/u&gt;&lt;/b&gt;" style="rounded=0;whiteSpace=wrap;html=1;" vertex="1" parent="1">
                    <mxGeometry x="440" y="360" width="120" height="60" as="geometry"/>
                </mxCell>
                <mxCell id="4" value="savings" style="rounded=0;whiteSpace=wrap;html=1;" vertex="1" parent="1">
                    <mxGeometry x="440" y="250" width="120" height="60" as="geometry"/>
                </mxCell>
                <mxCell id="5" value="" style="endArrow=classic;html=1;exitX=1;exitY=0.5;exitDx=0;exitDy=0;entryX=0;entryY=0.5;entryDx=0;entryDy=0;" edge="1" parent="1" source="2" target="4">
                    <mxGeometry width="50" height="50" relative="1" as="geometry">
                        <mxPoint x="400" y="460" as="sourcePoint"/>
                        <mxPoint x="450" y="410" as="targetPoint"/>
                    </mxGeometry>
                </mxCell>
                <mxCell id="6" value="" style="endArrow=classic;html=1;exitX=1;exitY=0.5;exitDx=0;exitDy=0;entryX=0;entryY=0.5;entryDx=0;entryDy=0;" edge="1" parent="1" source="2" target="3">
                    <mxGeometry width="50" height="50" relative="1" as="geometry">
                        <mxPoint x="400" y="460" as="sourcePoint"/>
                        <mxPoint x="450" y="410" as="targetPoint"/>
                    </mxGeometry>
                </mxCell>
                <mxCell id="12" value="Risk" style="rounded=1;whiteSpace=wrap;html=1;fontColor=#3D3C0C;strokeColor=#868219;fillColor=#868219;" vertex="1" parent="1">
                    <mxGeometry x="740" y="160" width="40" height="20" as="geometry"/>
                </mxCell>
                <mxCell id="15" value="" style="endArrow=classic;html=1;exitX=1;exitY=0.5;exitDx=0;exitDy=0;strokeColor=#868219;" edge="1" parent="1" source="4">
                    <mxGeometry width="50" height="50" relative="1" as="geometry">
                        <mxPoint x="260" y="350" as="sourcePoint"/>
                        <mxPoint x="680" y="280" as="targetPoint"/>
                    </mxGeometry>
                </mxCell>
                <mxCell id="16" value="&lt;font color=&quot;#868219&quot;&gt;profit&lt;/font&gt;" style="endArrow=classic;html=1;exitX=0.5;exitY=0;exitDx=0;exitDy=0;entryX=0.5;entryY=0;entryDx=0;entryDy=0;curved=1;strokeColor=#868219;" edge="1" parent="1" source="18" target="4">
                    <mxGeometry x="0.0017" width="50" height="50" relative="1" as="geometry">
                        <mxPoint x="790" y="200" as="sourcePoint"/>
                        <mxPoint x="480" y="260" as="targetPoint"/>
                        <Array as="points">
                            <mxPoint x="620" y="190"/>
                        </Array>
                        <mxPoint as="offset"/>
                    </mxGeometry>
                </mxCell>
                <mxCell id="18" value="&lt;font color=&quot;#868219&quot;&gt;&lt;b&gt;&lt;u&gt;investment&lt;/u&gt;&lt;/b&gt;&lt;/font&gt;" style="rounded=0;whiteSpace=wrap;html=1;strokeColor=#868219;" vertex="1" parent="1">
                    <mxGeometry x="680" y="250" width="120" height="60" as="geometry"/>
                </mxCell>
                <mxCell id="19" value="&lt;font color=&quot;#868219&quot;&gt;loss&lt;/font&gt;" style="endArrow=classic;html=1;exitX=0.5;exitY=1;exitDx=0;exitDy=0;entryX=0.5;entryY=1;entryDx=0;entryDy=0;curved=1;strokeColor=#868219;" edge="1" parent="1" source="18" target="4">
                    <mxGeometry x="0.0017" width="50" height="50" relative="1" as="geometry">
                        <mxPoint x="780" y="440" as="sourcePoint"/>
                        <mxPoint x="540" y="440" as="targetPoint"/>
                        <Array as="points">
                            <mxPoint x="620" y="350"/>
                        </Array>
                        <mxPoint as="offset"/>
                    </mxGeometry>
                </mxCell>
            </root>
        </mxGraphModel>
    </diagram>
</mxfile>